<svg width="12" height="12" viewBox="0 0 12 12" fill="none" xmlns="http://www.w3.org/2000/svg">
<path d="M2.8775 10.1415L2 4H10L9.1225 10.1415C9.08844 10.3798 8.96957 10.5978 8.78771 10.7555C8.60585 10.9132 8.37321 11 8.1325 11H3.8675C3.62679 11 3.39415 10.9132 3.21229 10.7555C3.03043 10.5978 2.91156 10.3798 2.8775 10.1415ZM10.5 2H8V1.5C8 1.36739 7.94732 1.24021 7.85355 1.14645C7.75979 1.05268 7.63261 1 7.5 1H4.5C4.36739 1 4.24021 1.05268 4.14645 1.14645C4.05268 1.24021 4 1.36739 4 1.5V2H1.5C1.36739 2 1.24021 2.05268 1.14645 2.14645C1.05268 2.24021 1 2.36739 1 2.5C1 2.63261 1.05268 2.75979 1.14645 2.85355C1.24021 2.94732 1.36739 3 1.5 3H10.5C10.6326 3 10.7598 2.94732 10.8536 2.85355C10.9473 2.75979 11 2.63261 11 2.5C11 2.36739 10.9473 2.24021 10.8536 2.14645C10.7598 2.05268 10.6326 2 10.5 2Z" fill="#818181"/>
</svg>
