<svg width="17" height="17" viewBox="0 0 17 17" fill="none" xmlns="http://www.w3.org/2000/svg">
<path d="M8.49959 0.265625C10.5883 0.265625 12.5915 1.09537 14.0684 2.57232C15.5454 4.04928 16.3751 6.05246 16.3751 8.14119C16.3751 10.2299 15.5454 12.2331 14.0684 13.7101C12.5915 15.187 10.5883 16.0168 8.49959 16.0168C6.41086 16.0168 4.40768 15.187 2.93072 13.7101C1.45377 12.2331 0.624023 10.2299 0.624023 8.14119C0.624023 6.05246 1.45377 4.04928 2.93072 2.57232C4.40768 1.09537 6.41086 0.265625 8.49959 0.265625ZM9.68084 5.10088C10.2658 5.10088 10.7406 4.69475 10.7406 4.09288C10.7406 3.491 10.2647 3.08488 9.68084 3.08488C9.09584 3.08488 8.62334 3.491 8.62334 4.09288C8.62334 4.69475 9.09584 5.10088 9.68084 5.10088ZM9.88671 11.4313C9.88671 11.3109 9.92834 10.9981 9.90471 10.8204L8.97996 11.8846C8.78871 12.086 8.54909 12.2255 8.43659 12.1884C8.38555 12.1696 8.34289 12.1332 8.31629 12.0858C8.28968 12.0383 8.28088 11.983 8.29146 11.9296L9.83271 7.06063C9.95871 6.443 9.61221 5.87938 8.87759 5.80738C8.10246 5.80738 6.96171 6.59375 6.26759 7.59163C6.26759 7.71088 6.24509 8.00788 6.26871 8.18563L7.19234 7.12025C7.38359 6.92113 7.60634 6.7805 7.71884 6.81875C7.77426 6.83864 7.81968 6.87948 7.84534 6.93248C7.871 6.98548 7.87486 7.04643 7.85609 7.10225L6.32834 11.9476C6.15171 12.5146 6.48584 13.0704 7.29584 13.1964C8.48834 13.1964 9.19259 12.4291 9.88784 11.4313H9.88671Z" fill="#6B7280"/>
</svg>
