<svg width="16" height="16" viewBox="0 0 16 16" fill="none" xmlns="http://www.w3.org/2000/svg">
<path fill-rule="evenodd" clip-rule="evenodd" d="M14.0758 6.49982L12.1061 7.47467L14.0758 8.44954L12.0553 9.44954L14.0758 10.4495L7.99882 13.4572L1.92188 10.4495L3.94239 9.44954L1.92188 8.44954L3.89162 7.47467L1.92188 6.49982L7.99882 3.49219L14.0758 6.49982ZM5.06961 10.0075L4.17631 10.4495L7.99882 12.3414L11.8214 10.4495L10.9281 10.0075L7.99882 11.4572L5.06961 10.0075ZM7.99882 9.50747L10.9788 8.03261L11.8214 8.44954L7.99882 10.3414L4.17631 8.44954L5.01883 8.03261L7.99882 9.50747ZM7.99882 4.60796L4.17631 6.49982L7.99882 8.39167L11.8214 6.49982L7.99882 4.60796Z" fill="#818181"/>
</svg>
