<svg width="26" height="20" viewBox="0 0 26 20" fill="none" xmlns="http://www.w3.org/2000/svg">
<path fill-rule="evenodd" clip-rule="evenodd" d="M0 6.32713L6.11702 1.99281L12.2658 6.32713H0ZM5.43783 16.0883L9.34375 15.0888L8.60954 16.3123C9.95736 17.5507 11.3835 17.9269 13.0085 17.3098C11.4067 19.6196 9.06657 19.795 7.14535 18.7532L6.39632 20L5.43783 16.0883ZM13.7321 9.94928L19.8491 5.61496L25.9979 9.94928H13.7321ZM14.1045 17.0351V15.615H14.5256L14.9276 15.3001V11.5237H14.1066V10.6192H25.5938V11.5237H24.7749V15.3001L25.1769 15.615H25.6064V17.0351H14.1045ZM16.8403 15.6128H17.3037L17.7057 15.298V11.5237H16.4404V15.3001L16.8403 15.6128ZM19.6185 15.6128H20.0819L20.4839 15.298V11.5237H19.2186V15.3001L19.6185 15.6128ZM22.3966 15.6128H22.86L23.262 15.298V11.5237H21.9967V15.3001L22.3966 15.6128ZM18.1924 3.95393L14.2399 4.7612L15.0334 3.57566C13.7469 2.27177 12.342 1.82587 10.6895 2.36264C12.4033 0.135249 14.7498 0.0739645 16.616 1.2109L17.4243 0L18.1924 3.95393ZM0.372396 13.4129V11.9928H0.793457L1.19548 11.6779V7.90152H0.374512V6.99704H11.8617V7.90152H11.0428V11.6758L11.4448 11.9907H11.8743V13.4108H0.372396V13.4129ZM3.10824 11.9907H3.57161L3.97363 11.6758V7.90152H2.70833V11.6758L3.10824 11.9907ZM5.88639 11.9907H6.34977L6.75179 11.6758V7.90152H5.48649V11.6758L5.88639 11.9907ZM8.66455 11.9907H9.12793L9.52995 11.6758V7.90152H8.26465V11.6758L8.66455 11.9907Z" fill="black"/>
</svg>
