<svg width="20" height="20" viewBox="0 0 20 20" fill="none" xmlns="http://www.w3.org/2000/svg">
<g clip-path="url(#clip0_3160_15148)">
<path d="M17.8167 14.5677C17.8463 14.5677 17.8751 14.5708 17.9035 14.5763C18.09 14.2511 18.2601 13.9098 18.4137 13.5532C18.4167 13.546 18.4197 13.5392 18.4233 13.5323C18.6541 12.9879 18.8283 12.4225 18.9456 11.8365C19.0366 11.3819 19.0928 10.9158 19.1141 10.4382H16.3646C16.3146 11.8338 15.8979 13.2101 15.1212 14.5677H17.8167ZM17.3374 15.4443H14.5682C13.7277 16.6619 12.5953 17.8646 11.1765 19.0522C11.399 19.0246 11.6191 18.9891 11.8365 18.9456C12.43 18.827 13.0025 18.6499 13.5535 18.4144L13.5532 18.4137C14.1132 18.1728 14.6349 17.8909 15.1171 17.5675C15.6004 17.2433 16.0483 16.875 16.4599 16.4616L16.4616 16.4599C16.7801 16.1427 17.0719 15.804 17.3374 15.4443ZM8.82331 19.0521C7.40468 17.8646 6.27235 16.6619 5.43169 15.4443H2.66295C2.92841 15.804 3.22008 16.1427 3.53844 16.4599L3.54007 16.4617C3.95186 16.8751 4.39978 17.2433 4.88285 17.5675C5.36495 17.8909 5.8866 18.1728 6.44683 18.4137C6.45383 18.4168 6.46083 18.4199 6.46766 18.4233C7.0121 18.6543 7.57754 18.8283 8.16364 18.9456C8.38109 18.9891 8.60082 19.0246 8.82331 19.0521ZM2.09181 14.5677H4.87862C4.10208 13.2101 3.68525 11.8338 3.63561 10.4382H0.886238C0.907397 10.9158 0.96355 11.3818 1.05453 11.8364C1.17319 12.4298 1.35043 13.0024 1.58579 13.5533L1.58644 13.5532C1.73862 13.9067 1.90692 14.2451 2.09181 14.5677ZM0.886238 9.56176H3.6527C3.75443 8.19457 4.20804 6.81809 5.02104 5.43234H2.09181C1.90692 5.75493 1.73862 6.09331 1.58644 6.44699C1.58335 6.45399 1.58009 6.46099 1.57684 6.46766C1.34588 7.01226 1.17188 7.5777 1.05453 8.16364C0.96355 8.61823 0.907397 9.08438 0.886238 9.56176ZM2.66295 4.55586H5.58257C6.41395 3.35777 7.51325 2.15269 8.885 0.9406C8.64151 0.969083 8.40111 1.00701 8.1638 1.05453C7.57021 1.17319 6.99778 1.35043 6.44683 1.58579L6.44699 1.58628C5.88677 1.82733 5.36512 2.10907 4.88302 2.43264C4.39994 2.75686 3.95202 3.12519 3.54023 3.53844L3.53844 3.54007C3.22008 3.85745 2.92841 4.196 2.66295 4.55586ZM11.1148 0.940437C12.4866 2.15252 13.5859 3.35761 14.4174 4.5557H17.3372C17.0718 4.196 16.7799 3.85729 16.4614 3.54007L16.4598 3.53844C16.0481 3.12503 15.6002 2.75686 15.117 2.43264C14.6347 2.10907 14.1131 1.82733 13.553 1.58628C13.546 1.58335 13.539 1.58009 13.5323 1.57667C12.9877 1.34588 12.4223 1.17172 11.8364 1.05453C11.5991 1.00701 11.3583 0.969083 11.1148 0.940437ZM17.9082 5.43234H14.9788C15.792 6.81809 16.2456 8.19457 16.3473 9.56176H19.1139C19.0926 9.08422 19.0363 8.61823 18.9455 8.16364C18.8267 7.57021 18.6496 6.99762 18.4142 6.44667L18.4136 6.44699C18.2614 6.09331 18.0932 5.75493 17.9082 5.43234ZM7.99258 0.194989C8.64232 0.0649419 9.3116 0 10.0001 0C10.6886 0 11.3577 0.0649419 12.0074 0.194989C12.6477 0.323245 13.2701 0.515629 13.8748 0.772304C13.8831 0.775234 13.8911 0.778327 13.8989 0.781745C14.5016 1.04119 15.0703 1.34897 15.6032 1.70688C16.1351 2.06366 16.6271 2.46812 17.0788 2.92141C17.532 3.37307 17.9365 3.86527 18.2931 4.39685C18.6507 4.92989 18.9588 5.49842 19.2183 6.10145L19.2176 6.10161L19.2183 6.10308C19.4798 6.71474 19.6755 7.34462 19.805 7.99258C19.9351 8.64232 19.9998 9.3116 19.9998 10.0001C19.9998 10.6886 19.9351 11.358 19.805 12.0077C19.6769 12.6477 19.4842 13.2705 19.2277 13.875C19.2248 13.8831 19.2217 13.8911 19.2181 13.8989C18.9587 14.5019 18.6507 15.0703 18.293 15.6033C17.9363 16.1351 17.5319 16.6271 17.0786 17.0788C16.6269 17.532 16.1347 17.9367 15.603 18.2933C15.0703 18.651 14.5014 18.9591 13.8987 19.2184L13.8984 19.2178L13.8968 19.2184C13.2851 19.4798 12.6551 19.6755 12.0073 19.805C11.3575 19.9351 10.6882 20 9.99992 20C9.3116 20 8.64216 19.9351 7.99242 19.805C7.35227 19.6769 6.72971 19.4844 6.12489 19.2279C6.11691 19.2248 6.10894 19.2218 6.10096 19.2183C5.49793 18.959 4.92956 18.651 4.39652 18.2931C3.86494 17.9365 3.37275 17.5319 2.92109 17.0786C2.46779 16.6269 2.06333 16.1347 1.70672 15.6032C1.34897 15.0703 1.04102 14.5017 0.781582 13.8987L0.782233 13.8984L0.781582 13.8969C0.520187 13.2853 0.324547 12.6554 0.194989 12.0074C0.0651047 11.3578 0 10.6886 0 9.99992C0 9.3116 0.0651047 8.64216 0.195151 7.99242C0.323245 7.35227 0.515792 6.72971 0.772304 6.12505C0.775234 6.11707 0.778327 6.10894 0.781745 6.10112C1.04119 5.49809 1.34897 4.92956 1.70688 4.39652C2.06366 3.86494 2.46812 3.37275 2.92125 2.92109C3.37291 2.46779 3.8651 2.06333 4.39668 1.70656C4.92973 1.34881 5.49825 1.04086 6.10112 0.781419L6.10129 0.78207L6.10275 0.781419C6.71457 0.520349 7.34462 0.32471 7.99258 0.194989ZM10.4384 1.50848V4.55586H13.3398C12.5774 3.55065 11.6114 2.53501 10.4384 1.50848ZM10.4384 5.43234V9.56176H15.4713C15.3575 8.20563 14.8546 6.82932 13.9547 5.43234H10.4384ZM10.4384 10.4382V14.5677H14.1022C14.9694 13.2011 15.435 11.8245 15.4907 10.4382H10.4384ZM10.4384 15.4443V18.529C11.6827 17.5063 12.7011 16.478 13.4895 15.4443H10.4384ZM9.56176 18.5293V15.4443H6.51047C7.29873 16.478 8.31713 17.5065 9.56176 18.5293ZM9.56176 14.5677V10.4382H4.50948C4.56498 11.8246 5.03048 13.2011 5.898 14.5677H9.56176ZM9.56176 9.56176V5.43234H6.04546C5.14555 6.82932 4.64262 8.2058 4.52868 9.56176H9.56176ZM9.56176 4.55586V1.50815C8.38874 2.53469 7.42259 3.55065 6.66021 4.55586H9.56176Z" fill="black"/>
</g>
<defs>
<clipPath id="clip0_3160_15148">
<rect width="20" height="20" fill="white"/>
</clipPath>
</defs>
</svg>
