<svg width="18" height="18" viewBox="0 0 18 18" fill="none" xmlns="http://www.w3.org/2000/svg">
<path d="M7.5 2.25C7.2875 2.25 7.1095 2.178 6.966 2.034C6.8225 1.89 6.7505 1.712 6.75 1.5C6.7495 1.288 6.8215 1.11 6.966 0.966C7.1105 0.822 7.2885 0.75 7.5 0.75H10.5C10.7125 0.75 10.8907 0.822 11.0347 0.966C11.1788 1.11 11.2505 1.288 11.25 1.5C11.2495 1.712 11.1775 1.89025 11.034 2.03475C10.8905 2.17925 10.7125 2.251 10.5 2.25H7.5ZM9 10.5C9.2125 10.5 9.39075 10.428 9.53475 10.284C9.67875 10.14 9.7505 9.962 9.75 9.75V6.75C9.75 6.5375 9.678 6.3595 9.534 6.216C9.39 6.0725 9.212 6.0005 9 6C8.788 5.9995 8.61 6.0715 8.466 6.216C8.322 6.3605 8.25 6.5385 8.25 6.75V9.75C8.25 9.9625 8.322 10.1407 8.466 10.2847C8.61 10.4288 8.788 10.5005 9 10.5ZM9 16.5C8.075 16.5 7.203 16.322 6.384 15.966C5.565 15.61 4.8495 15.1255 4.2375 14.5125C3.6255 13.8995 3.14125 13.1838 2.78475 12.3652C2.42825 11.5467 2.25 10.675 2.25 9.75C2.25 8.825 2.42825 7.953 2.78475 7.134C3.14125 6.315 3.6255 5.5995 4.2375 4.9875C4.8495 4.3755 5.56525 3.89125 6.38475 3.53475C7.20425 3.17825 8.076 3 9 3C9.775 3 10.5188 3.125 11.2313 3.375C11.9438 3.625 12.6125 3.9875 13.2375 4.4625L13.7625 3.9375C13.9 3.8 14.075 3.73125 14.2875 3.73125C14.5 3.73125 14.675 3.8 14.8125 3.9375C14.95 4.075 15.0187 4.25 15.0187 4.4625C15.0187 4.675 14.95 4.85 14.8125 4.9875L14.2875 5.5125C14.7625 6.1375 15.125 6.80625 15.375 7.51875C15.625 8.23125 15.75 8.975 15.75 9.75C15.75 10.675 15.5718 11.547 15.2153 12.366C14.8588 13.185 14.3745 13.9005 13.7625 14.5125C13.1505 15.1245 12.4348 15.609 11.6153 15.966C10.7958 16.323 9.924 16.501 9 16.5ZM9 15C10.45 15 11.6875 14.4875 12.7125 13.4625C13.7375 12.4375 14.25 11.2 14.25 9.75C14.25 8.3 13.7375 7.0625 12.7125 6.0375C11.6875 5.0125 10.45 4.5 9 4.5C7.55 4.5 6.3125 5.0125 5.2875 6.0375C4.2625 7.0625 3.75 8.3 3.75 9.75C3.75 11.2 4.2625 12.4375 5.2875 13.4625C6.3125 14.4875 7.55 15 9 15Z" fill="#797979"/>
</svg>
