<svg width="20" height="20" viewBox="0 0 20 20" fill="none" xmlns="http://www.w3.org/2000/svg">
<path d="M14.1677 10.834C14.6279 10.834 15.001 11.2071 15.001 11.6673C15.001 12.0947 14.6793 12.4469 14.2649 12.495L14.1677 12.5007H4.51352L7.25694 15.2447C7.55734 15.5451 7.58045 16.0178 7.32627 16.3447L7.25694 16.4232C6.95654 16.7236 6.48385 16.7467 6.15694 16.4926L6.07843 16.4232L1.91176 12.2566C1.40962 11.7544 1.72796 10.9113 2.40633 10.839L2.50102 10.834H14.1677ZM13.8434 3.50874L13.9219 3.57806L18.0886 7.74473C18.5908 8.24687 18.2724 9.08997 17.594 9.16233L17.4993 9.16732H5.83268C5.37244 9.16732 4.99935 8.79422 4.99935 8.33398C4.99935 7.90662 5.32105 7.5544 5.7355 7.50626L5.83268 7.50065H15.4868L12.7434 4.75657C12.443 4.45617 12.4199 3.98348 12.6741 3.65657L12.7434 3.57806C13.0438 3.27766 13.5165 3.25455 13.8434 3.50874Z" fill="#6B7280"/>
</svg>
