<svg width="19" height="18" viewBox="0 0 19 18" fill="none" xmlns="http://www.w3.org/2000/svg">
<path d="M14.7012 10.4587L14.1987 7.72275C13.9812 6.54075 13.8725 5.94975 13.4427 5.60025C13.013 5.25075 12.395 5.25 11.1597 5.25H7.84025C6.605 5.25 5.98775 5.25 5.55725 5.60025C5.1275 5.94975 5.01875 6.54075 4.80125 7.72275L4.29875 10.4587C3.84875 12.912 3.623 14.139 4.31675 14.9437C5.0105 15.75 6.293 15.75 8.8565 15.75H10.1435C12.707 15.75 13.9895 15.75 14.6832 14.9445C15.377 14.139 15.152 12.912 14.7012 10.4595" stroke="#1DB954" stroke-linecap="round" stroke-linejoin="round"/>
<path d="M9.5 7.875V12.75M7.625 11.25L9.5 13.125L11.375 11.25M16.25 8.25C16.3659 8.19219 16.4709 8.1148 16.5605 8.02125C17 7.56675 17 6.8325 17 5.364C17 3.8955 17 3.162 16.5605 2.706C16.121 2.25 15.4145 2.25 14 2.25H5C3.5855 2.25 2.879 2.25 2.4395 2.706C2 3.162 2 3.89625 2 5.364C2 6.83175 2 7.566 2.4395 8.02125C2.5295 8.11525 2.633 8.1915 2.75 8.25" stroke="#1DB954" stroke-linecap="round" stroke-linejoin="round"/>
</svg>
